<?xml version="1.0" encoding="utf-8"?>
<!-- Generator: Adobe Illustrator 18.1.1, SVG Export Plug-In . SVG Version: 6.00 Build 0)  -->
<svg version="1.1" id="Layer_1" xmlns="http://www.w3.org/2000/svg" xmlns:xlink="http://www.w3.org/1999/xlink" x="0px" y="0px"
	 viewBox="0 0 349.3 66.6" enable-background="new 0 0 349.3 66.6" xml:space="preserve">
<g>
	<rect x="1.6" y="1.4" fill="#FFFFFF" width="56.9" height="57.9"/>
	<g>
		<g>
			<g>
				<path fill="#2C71B8" d="M26.1,44l0.2,0H30c0-0.3-1.9-4.4-2-4.7C27.9,39.4,26.1,43.9,26.1,44z"/>
			</g>
			<g>
				<path fill="#2C71B8" d="M14,54.9l0.2,0l3.1,0c0-0.2-1.5-3.6-1.7-3.8C15.5,51.1,14,54.8,14,54.9z"/>
			</g>
			<g>
				<path fill="#2C71B8" d="M0,0.3v60.5h60.5V0.3H0z M34.8,36.7c0.1-0.3,0.3-0.3,0.6-0.3l2.4,0.1c0.1,0,0.2,0,0.3,0
					c0.2,0.1,0.3,0.2,0.4,0.4l2.1,4.4l2.3-4.2c0.1-0.2,0.3-0.4,0.4-0.5c0.1-0.1,0.2-0.1,0.3-0.1c0.3,0,0.5,0,0.8,0c0.7,0,1.4,0,2,0
					c0.1,0,0.1,0,0.2,0c0,0,0.1,0,0.1,0.1c0,0.2,0,0.3-0.1,0.3c-0.1,0.1-0.2,0.1-0.3,0.1c-0.1,0-0.2,0.1-0.3,0.1
					c-0.1,0.1-0.1,0.2-0.1,0.3l0,8.5c0,0.2,0,0.4,0,0.4c0,0.1,0.1,0.2,0.1,0.2c0.1,0,0.1,0.1,0.2,0.1c0.1,0,0.1,0.1,0.2,0.1
					c0.1,0.1,0.1,0.1,0.1,0.3c0,0.1,0,0.1-0.1,0.1h-2.8c-0.5,0-0.5-0.5-0.5-0.7v-8.4l-0.3,0.5c-0.1,0.2-0.2,0.4-0.4,0.6
					c-0.1,0.3-0.3,0.5-0.4,0.8c-0.2,0.3-0.3,0.6-0.4,0.8c-0.1,0.3-0.3,0.5-0.3,0.7c-0.1,0.2-0.1,0.4-0.1,0.4c0,0.2,0,0.3,0.1,0.3
					c0.1,0.1,0.2,0.1,0.3,0.2c0.1,0.1,0.3,0.1,0.4,0.3c0,0.1,0,0.1,0,0.2c-0.1,0.1-0.3,0.1-0.3,0.1c-0.6,0-2.6,0-2.7,0
					c-0.1,0-0.2,0-0.3-0.1c-0.2-0.1-0.3-0.3-0.5-0.6c-0.1-0.3-1.6-3.2-1.6-3.2l0,7.1c0,0.4-0.2,0.9-0.6,1c-0.2,0-0.3,0-0.4,0
					c-0.1,0-0.3-0.1-0.3-0.2c-0.1-0.1-0.1-0.2,0.1-0.4c0.1-0.2,0.2-0.4,0.3-0.6c0.1-0.2,0.2-0.4,0.2-0.7v-7.9c0-0.1,0-0.2-0.1-0.3
					c-0.2-0.1-0.4-0.2-0.5-0.3C34.9,37,34.8,36.8,34.8,36.7z M10.8,56.6c-2.4,1.8-6.2,1.1-7.3-1.8c-0.2-0.6-0.3-1.2-0.3-1.7
					c0-0.5,0.1-0.9,0.3-1.4c0.9-2.5,4-3.8,6.5-2.9c0.3,0.1,1,0.3,1.1,0.8c0,0.3-0.2,0.6-0.5,0.8c-0.2,0.2-0.3,0.4-0.5,0.5
					C10,51,9.7,51.3,9.6,51.3c-0.2,0-0.2-0.5-0.2-0.6c0-0.3-0.1-0.6-0.3-0.8c-0.4-0.6-0.9-1-1.6-0.9c-1.2,0.1-1.8,1.2-1.9,2.2
					c-0.1,1.2,0.1,2.4,0.6,3.5c0.3,0.7,0.8,1.4,1.5,1.7c0.6,0.3,1.4,0.3,2,0c0.3-0.1,0.6-0.3,0.9-0.5c0.2-0.2,0.5-0.3,0.7,0.1
					C11.5,56.2,11,56.5,10.8,56.6z M10,47c-1.8,0.7-4.2,0.4-5.5-1.1c-0.6-0.8-1-1.8-1.2-2.7c-0.2-1.6,0.2-3.3,1.2-4.6
					c0.3-0.3,0.5-0.6,0.9-0.9c1.3-1.1,2.5-1.5,4.6-1.4c1,0,1.9,0.3,2.6,1.1c0.1,0.2,0.2,0.3,0.2,0.5c0,0.4-1,1.5-1.2,1.6
					c-0.1,0.1-0.3,0.3-0.4,0.3c-0.1,0-0.2-0.1-0.2-0.2c0-0.1,0-0.1,0-0.2c0-0.2,0-0.4,0-0.6c-0.1-0.2-0.2-0.5-0.3-0.7
					c-0.2-0.4-0.6-0.7-1-0.9c-0.7-0.4-1.5-0.3-2.2,0.2c-0.5,0.4-0.8,1.1-1,1.7c-0.4,1.3-0.3,2.7,0,4c0.2,0.9,0.5,1.7,1.1,2.4
					C8,45.9,8.5,46.2,9,46.3c0.4,0.1,0.9,0,1.3-0.3c0.4-0.3,0.4-0.8,0.4-1.3c0-0.5,0-1.1,0-1.6c0-0.3,0-0.6-0.1-0.9
					c-0.1-0.2-0.5-0.4-0.3-0.7c0.3-0.4,1.5-0.3,1.9-0.2c0.5,0.1,1.1,0.1,1.2,0.7c0.1,0.4,0.1,1,0.1,1.4c0,0.5,0,1.1,0,1.6
					c0,0.4-0.1,0.9,0.1,1.3c0.1,0.3,0.4,0.4,0.2,0.7c-0.1,0.2-0.3,0.3-0.5,0.3c-0.4,0.1-0.8,0.1-1.2-0.1c-0.2-0.1-0.5-0.2-0.7-0.3
					C10.9,46.6,10.5,46.8,10,47z M20.5,57.2c0,0.1,0,0.1-0.1,0.2c0,0.1-0.1,0.1-0.2,0.1l-2.8,0c0,0-0.1,0-0.1-0.1
					c0,0-0.1-0.1-0.1-0.1c0-0.1,0-0.1,0.1-0.2c0,0,0.1-0.1,0.1-0.1c0.1,0,0.1,0,0.2-0.1c0.1,0,0.1,0,0.2-0.1c0.1,0,0.1-0.1,0.1-0.2
					c0-0.1,0-0.2,0-0.3c0-0.1-0.1-0.2-0.1-0.3c0-0.1-0.1-0.2-0.1-0.3c0-0.1-0.1-0.1-0.1-0.2c0,0-0.1,0-0.1,0c0,0-0.1,0-0.1,0
					c-0.1,0-0.2,0-0.3,0c-0.8,0-1.5,0-2.3,0c-0.3,0-0.6,0-1,0c-0.1,0-0.2,0-0.3,0.1c0,0-0.1,0.3-0.1,0.3c0,0,0,0.1,0,0.1
					c-0.1,0.3-0.2,0.6-0.4,0.9c-0.1,0.2-0.1,0.3-0.3,0.4c-0.2,0.1-0.3,0.1-0.5,0.1c-0.1,0-0.3,0-0.4-0.1c-0.1,0-0.2-0.1-0.2-0.2
					c0.1-0.1,0.3-0.1,0.4-0.2c0.4-0.2,0.5-0.6,0.7-1c0.1-0.2,0.2-0.4,0.2-0.6c0.2-0.5,0.5-1.1,0.7-1.6c0.2-0.6,0.5-1.2,0.7-1.8
					c0.2-0.5,0.4-1,0.6-1.5c0.1-0.2,0.2-0.4,0.2-0.6c0.1-0.2-0.3-0.6-0.4-0.7c-0.1-0.1-0.4-0.3-0.3-0.5c0.1-0.2,0.5-0.2,0.8-0.2
					c0.3,0,1.4,0.1,1.7,0.2c0.2,0.1,0.3,0.2,0.4,0.5l2.8,7c0,0.1,0.1,0.2,0.1,0.3c0,0.1,0,0.2,0,0.3C20.6,57.1,20.6,57.2,20.5,57.2z
					 M15.3,47.2c-0.1,0-0.3,0-0.3-0.1c-0.1-0.1,0-0.3,0-0.4c0.1-0.2,0.3-0.4,0.3-0.6l0.1-8.4c0-0.3,0-0.6,0.1-0.9
					c0.1-0.2,0.2-0.2,0.4-0.2l2.4,0c0.1,0,0.4,0.1,0.4,0.3c0,0.1-0.2,0.2-0.2,0.3c-0.1,0.1-0.2,0.2-0.2,0.4c0,0.1-0.1,0.3-0.1,0.6
					c0,0.4,0,0.8,0,1.3c0,0.9,0,6.9,0,7.1c0.1,0.2,0.3,0.3,0.5,0.3c0.3,0,0.6,0,0.9,0c0.3,0,0.6,0,0.8-0.2c0.1-0.1,0.3-0.3,0.3-0.4
					c0.2-0.5,0.8-0.6,1.3-0.6c0.3,0,1.1-0.1,1,0.5c-0.1,0.4-0.5,1.3-1,1.3c-0.1,0-0.7,0-0.7,0H15.3z M28.9,52.5
					c-0.7,1.4-2.5,2.1-4,2.4c-0.1,0-0.2,0.1-0.4,0.1c-0.2,0.1-0.3,0.2-0.3,0.3c0,0.2-0.1,0.4-0.1,0.6v0.9c0,0.2,0,0.4-0.1,0.6
					c-0.1,0.3-0.6,0.2-0.9,0.2c-0.4,0-0.8,0-1.3,0c-0.1,0-0.3,0-0.3-0.1c0-0.1,0-0.2,0.1-0.3c0,0,0.1-0.1,0.1-0.1
					c0,0,0.1-0.1,0.1-0.1c0-0.1,0.1-0.3,0.1-0.5c0-0.2,0-0.4,0-0.6v-6.4c0-0.1,0-0.1-0.1-0.2c-0.1-0.1-0.2-0.2-0.2-0.3
					c0-0.1,0-0.1,0-0.2c0.1-0.1,0.2-0.1,0.3-0.1c0,0,1,0,1.3,0c0.2,0,0.5,0,0.7,0.1c0.2,0.1,0.1,0.3,0.3,0.3c0.1,0,0.4-0.1,0.5-0.2
					c0.2-0.1,0.3-0.1,0.5-0.2c1.4-0.3,3.1-0.2,3.7,1.2C29.4,50.8,29.3,51.7,28.9,52.5z M32.4,57.6l-2.3,0c-0.2,0-0.6,0-0.5-0.4
					C29.8,57,30,57,30.2,57c0.1,0,0.3-0.1,0.3-0.2v-7.2c0-0.1,0-0.1,0-0.2c0,0,0,0,0,0c0-0.1,0-0.1-0.1-0.1c0,0-0.1-0.1-0.2-0.1
					c-0.1,0-0.3-0.1-0.4-0.2c-0.1-0.1-0.1-0.2,0-0.3c0.1-0.1,0.2-0.1,0.3-0.1c0.2,0,1.7,0,2.2,0c0.2,0,0.4,0,0.5,0.2
					c0.1,0.1,0.1,0.2,0.1,0.4l0,7.9C32.8,57.3,32.8,57.6,32.4,57.6z M30.4,47.3c0,0-0.1,0-0.2-0.1c-0.1-0.1-0.1-0.1-0.1-0.1
					c0-0.1,0-0.2,0.1-0.2c0,0,0.1-0.1,0.2-0.1c0.1,0,0.1-0.1,0.2-0.1c0.1,0,0.1,0,0.2-0.1c0.1-0.1,0.1-0.2,0.1-0.3
					c0-0.1,0-0.2,0-0.3c0-0.1-0.1-0.2-0.1-0.4c0-0.1-0.1-0.2-0.1-0.3c0-0.1-0.1-0.2-0.1-0.2c0,0-0.1,0-0.2,0c0,0-0.1,0-0.2,0
					c-0.1,0-0.2,0-0.4,0c-0.9,0-1.8,0-2.8,0c-0.4,0-0.8,0-1.2,0c-0.2,0-0.3,0-0.4,0.1c-0.1,0.1-0.2,0.3-0.2,0.3c0,0,0,0.1,0,0.1
					c-0.2,0.4-0.3,0.7-0.5,1.1c-0.1,0.2-0.1,0.4-0.3,0.5c-0.2,0.1-0.4,0.1-0.6,0.1c-0.2,0-0.3,0-0.4-0.1c-0.1-0.1-0.2-0.1-0.2-0.3
					c0.2-0.1,0.3-0.2,0.5-0.3c0.4-0.3,0.6-0.7,0.8-1.2c0.1-0.2,0.2-0.5,0.3-0.7c0.3-0.7,0.6-1.3,0.8-2c0.3-0.7,0.6-1.5,0.9-2.2
					c0.2-0.6,0.5-1.2,0.7-1.8c0.1-0.2,0.2-0.5,0.3-0.7c0.1-0.3-0.4-0.7-0.5-0.8c-0.2-0.1-0.5-0.4-0.3-0.6c0.2-0.2,0.6-0.3,1-0.2
					c0.4,0,1.8,0.2,2.1,0.3c0.2,0.1,0.4,0.3,0.5,0.6l3.5,8.6c0,0.1,0.1,0.2,0.1,0.4c0,0.1,0.1,0.3,0.1,0.4c0,0.1,0,0.2,0,0.2
					c0,0.1-0.1,0.1-0.1,0.3c-0.1,0.1-0.1,0.2-0.2,0.2H30.4z M39.9,49.7c-0.2,0-0.4,0-0.6,0c-0.1,0-0.3,0-0.4,0.1
					c-0.1,0-0.1,0.1-0.1,0.2c0,0.1,0,0.3,0,0.4l0,6.5c0,0.2,0,0.5-0.2,0.7c-0.1,0.1-0.2,0.1-0.3,0.1c-0.3,0-1.5,0-1.7,0
					c-0.1,0-0.5,0-0.6-0.1c-0.2-0.3,0.2-0.4,0.3-0.5c0.2-0.1,0.3-0.2,0.3-0.6v-6.4c0-0.2,0-0.3-0.2-0.4c-0.1-0.1-0.3-0.1-0.4-0.1
					c-0.4,0-0.8,0.1-1.1,0.3c-0.3,0.2-0.6,0.4-0.9,0.7c-0.1,0-0.1-0.1-0.2-0.2c0-0.1,0-0.2,0-0.4c0-0.2,0.1-0.3,0.2-0.5
					c0.1-0.2,0.2-0.4,0.3-0.5c0.1-0.1,0.1-0.3,0.3-0.4c0.1-0.1,0.1-0.1,0.2-0.1c0.1,0,0.3,0,0.4,0c0.2,0,0.4,0.1,0.6,0.1
					c1.1,0.1,2.3,0.1,3.5,0.1c0.7,0,1.4,0,2.1-0.1c0.1,0,0.3-0.1,0.5,0c0.2,0.1,0.1,0.3,0,0.5c-0.2,0.5-0.4,0.9-0.7,1.3
					c-0.1,0.1-0.2,0.3-0.3,0.2c0,0-0.1-0.1-0.1-0.1C40.5,50.1,40.3,49.8,39.9,49.7z M49.4,57.2c0,0.1,0,0.1-0.1,0.2
					c0,0.1-0.1,0.1-0.2,0.1l-2.8,0c0,0-0.1,0-0.1-0.1c0,0-0.1-0.1-0.1-0.1c0-0.1,0-0.1,0.1-0.2c0,0,0.1-0.1,0.1-0.1
					c0.1,0,0.1,0,0.2-0.1c0.1,0,0.1,0,0.2-0.1c0.1,0,0.1-0.1,0.1-0.2c0-0.1,0-0.2,0-0.3c0-0.1,0-0.2-0.1-0.3c0-0.1-0.1-0.2-0.1-0.3
					c0-0.1-0.1-0.1-0.1-0.2c0,0-0.1,0-0.1,0c0,0-0.1,0-0.1,0c-0.1,0-0.2,0-0.3,0c-0.8,0-1.5,0-2.3,0c-0.3,0-0.6,0-1,0
					c-0.1,0-0.2,0-0.3,0.1c0,0-0.1,0.3-0.1,0.3c0,0,0,0.1,0,0.1c-0.1,0.3-0.2,0.6-0.4,0.9c-0.1,0.2-0.1,0.3-0.3,0.4
					c-0.2,0.1-0.3,0.1-0.5,0.1c-0.1,0-0.3,0-0.4-0.1c-0.1,0-0.2-0.1-0.2-0.2c0.1-0.1,0.3-0.1,0.4-0.2c0.4-0.2,0.5-0.6,0.7-1
					c0.1-0.2,0.2-0.4,0.2-0.6c0.2-0.5,0.5-1.1,0.7-1.6c0.2-0.6,0.5-1.2,0.7-1.8c0.2-0.5,0.4-1,0.6-1.5c0.1-0.2,0.2-0.4,0.2-0.6
					c0.1-0.2-0.3-0.6-0.4-0.7c-0.1-0.1-0.4-0.3-0.3-0.5c0.1-0.2,0.5-0.2,0.8-0.2c0.3,0,1.4,0.1,1.7,0.2c0.2,0.1,0.3,0.2,0.4,0.5
					l2.8,7c0,0.1,0.1,0.2,0.1,0.3c0,0.1,0.1,0.2,0.1,0.3C49.5,57.1,49.5,57.2,49.4,57.2z M57.2,56.5c-0.1,0.3-0.4,1-0.8,1
					c-0.1,0-0.6,0-0.6,0h-5c-0.1,0-0.2,0-0.3-0.1c-0.1-0.1,0-0.3,0-0.3c0.1-0.2,0.2-0.3,0.2-0.5l0-7c0-0.3,0-0.5,0.1-0.8
					c0.1-0.1,0.2-0.2,0.3-0.2l2,0c0.1,0,0.3,0.1,0.3,0.2c0,0.1-0.1,0.2-0.2,0.2c-0.1,0.1-0.1,0.2-0.2,0.3c0,0.1,0,0.3-0.1,0.5
					c0,0.4,0,0.7,0,1.1c0,0.8,0,5.7,0,5.9c0.1,0.2,0.2,0.2,0.4,0.2c0.3,0,0.5,0,0.8,0c0.2,0,0.5,0,0.7-0.1c0.1-0.1,0.2-0.2,0.3-0.4
					c0.2-0.4,0.6-0.5,1-0.5C56.6,56.1,57.3,56.1,57.2,56.5z M57.3,31H46.6V3.6h10.7V31z"/>
			</g>
			<g>
				<path fill="#2C71B8" d="M26.2,49.9c-0.5-0.4-1.2-0.5-1.8-0.3c-0.2,0.1-0.2,0.2-0.2,0.3c0,0.3,0,0.6,0,0.9c0,0,0,3.1,0,3.3
					c0,0.1,0.1,0.3,0.2,0.3c0.1,0,0.1,0,0.2,0c1.6,0,2.3-1.8,2.3-3.1C26.9,50.8,26.6,50.2,26.2,49.9z"/>
			</g>
			<g>
				<path fill="#2C71B8" d="M42.9,54.9l0.2,0l3.1,0c0-0.2-1.5-3.6-1.7-3.8C44.4,51.1,42.9,54.8,42.9,54.9z"/>
			</g>
			<g>
				<path fill="#2C71B8" d="M55.9,20.6c0-0.8,0-1.4-0.1-2c-0.1-0.4-0.2-0.7-0.5-0.9c-0.3-0.2-0.8-0.2-1,0.1
					c-0.2,0.2-0.2,0.5-0.1,0.8c0,0.3,0.1,0.6,0.1,1c0.1,2.8,0.2,5.6,0.1,8.3c-0.1,0.8-0.5,1.1-1.2,0.9c-0.1,0-0.2,0-0.2,0.1
					c-0.1,0.1,0.2,0.1,0.2,0.2c0.1,0.1,0,0.2,0,0.3c0,0.1,0,0.2,0.1,0.3c0.1,0.1,0.2,0.2,0.3,0.3c0.1,0.1,0.2,0.2,0.2,0.4
					c0.1,0.3,0.2,0.2,0.5-0.1c0.1-0.2,0.3-0.2,0.5-0.3c0.1,0,0.3,0,0.4-0.1c0.1-0.1,0.2-0.1,0.3-0.2c0.2-0.2,0.4-0.5,0.4-0.8
					c0-0.2,0-0.4,0-0.6c0-0.5,0-1,0.1-1.5c0-1.4,0-2.8,0-4.2C55.9,22,55.9,21.3,55.9,20.6z"/>
			</g>
			<g>
				<path fill="#2C71B8" d="M51.3,24.7c-0.3-0.1-0.5-0.2-0.8-0.2V24c0-0.7,0.3-1.2,0.8-1.5c0.3-0.2,0.4-0.5,0.2-1.1
					C51.3,21,51,20.8,50.7,21c0.1-0.4,0.3-0.8,0.7-1.1c0.2-0.2,0.3-0.5,0.1-1c-0.2-0.5-0.4-0.7-0.8-0.6c-0.2,0.1-0.4,0.2-0.7,0.2
					c-0.2,0.1-0.5,0.2-0.7,0.3c-0.2,0.1-0.4,0.1-0.6,0.3c-0.4,0.4-0.2,0.9,0.1,1.3c0.1,0.1,0.2,0.2,0.3,0.3c0,0,0.3,0.2,0.3,0.2
					c0,0.2,0,0.4,0,0.6c-0.5,0.4-1.1,0.8-1.7,1c-0.3,0.1-0.5,0.2-0.6,0.4c-0.2,0.4,0.2,1.5,0.8,1.3c0.3-0.1,0.6-0.2,0.8-0.2
					c-0.7,1.1-1.3,2.2-1.7,3.4c-0.1,0.1-0.2,0.5-0.1,0.6c0.2,0.2,0.5-0.3,0.6-0.4c0.2-0.2,0.3-0.4,0.4-0.6c0.3-0.4,0.6-0.8,0.8-1.2
					c0.3-0.5,0.4-0.7,0.5-0.6c0,1-0.1,2-0.1,2.9c0,0.3-0.1,0.5-0.3,0.5c-0.2,0-0.3,0.1-0.2,0.3c0.1,0.1,0.1,0.3,0.1,0.6
					c0.1,0.4,0.3,0.5,0.6,0.2l0.5-0.5c0.3-0.3,0.4-0.6,0.4-0.9c0-0.9,0.1-1.8,0.1-2.8c0,0,0.4,0.2,0.4,0.2c0.2,0.1,0.5,0,0.6-0.1
					C51.8,25.5,51.8,24.9,51.3,24.7z"/>
			</g>
			<g>
				<path fill="#2C71B8" d="M53.4,23.7v-1.6c0-0.5,0-0.9,0-1.1c-0.2-0.2-0.4-0.3-0.6,0c-0.4,0.2-0.6,0.7-0.6,1.7l-0.1,1
					c0,0.6,0.1,1.2,0.2,1.6c0.2,0.2,0.4,0.2,0.7-0.2C53.3,24.8,53.4,24.4,53.4,23.7z"/>
			</g>
			<g>
				<path fill="#2C71B8" d="M47.3,9.8c0.3,0.2,0.6,0.2,0.8,0.5c0,0.2,0.1,0.3,0.2,0.3c0,0,0.1,0,0.1-0.1l0,0l0,0
					c0-0.4,0-0.8-0.1-1.2l0,0c-0.2-0.4-0.6-0.6-1.1-0.7l0,0c0,0,0,0,0,0c-0.3,0.1-0.3,0.7-0.2,1C47.1,9.7,47.2,9.8,47.3,9.8z"/>
			</g>
			<g>
				<path fill="#2C71B8" d="M48.4,12.2L48.4,12.2c0-0.1-0.1-0.1-0.1-0.1c-0.1,0-0.2,0.1-0.3,0.8c0,0.2-0.2,0.4-0.4,0.5
					c-0.1,0.1-0.2,0.1-0.3,0.2c-0.2,0.4-0.2,0.8-0.1,1.2c0,0.2,0.1,0.4,0.2,0.6c0.1,0.2,0.1,0.5,0.3,0.7l0,0
					c0.2,0.2,0.4,0.3,0.5,0.3c0.3,0,0.4-0.3,0.4-0.6c0-0.4,0.1-0.8,0-1.1C48.3,13.8,48.3,13,48.4,12.2L48.4,12.2z"/>
			</g>
			<g>
				<path fill="#2C71B8" d="M48.1,6.7C48.1,6.7,48.1,6.7,48.1,6.7c0.3,0.1,0.4,0.3,0.5,0.4c0.1,0.3,0.3,0.4,0.6,0.4
					c0.2,0,0.3-0.1,0.5-0.2l0,0c0.3-0.3,0.1-0.8,0-1.1c-0.2-0.4-0.6-0.7-1-0.9c-0.2-0.1-0.4-0.2-0.7-0.1c-0.3,0.1-0.3,0.4-0.4,0.7
					c0,0.2,0,0.4,0.1,0.5C47.8,6.6,47.9,6.7,48.1,6.7z"/>
			</g>
			<g>
				<path fill="#2C71B8" d="M50.8,8.2c0.1,0.3,0.1,0.6,0.2,1c-0.5,0.1-1,0.2-1.5,0.5c-0.2,0.1-0.3,0.2-0.3,0.3c0,0.2,0,0.3,0.2,0.6
					c0.1,0.2,0.3,0.3,0.6,0.3c0.2,0,0.4-0.1,0.6-0.2c-0.5,1.4-1.1,2.6-1.7,3.7l0,0c0,0.2,0,0.3,0,0.3c0,0,0,0,0.1,0
					c0.1,0,0.1,0,0.2-0.1c0.4-0.2,0.6-0.5,0.7-0.9c0.6-1.2,1.2-2.4,1.9-3.6c0.4-0.3,0.8-0.1,1.3,0.4c-0.4,0.2-0.9,0.4-1.5,0.6l0,0
					l0,0c-0.4,0.4-0.5,0.8-0.2,1.2c-0.1,1-0.1,2,0,3.2c0.2,0.7,1,1,2.4,1c0.1,0,0.2,0,0.3,0c0.6-0.1,0.9-0.4,0.9-0.9l0,0
					c-0.3-0.6-0.7-0.9-1.1-0.9c0,0,0,0-0.1,0l0,0c-0.5,0.2-1.1,0.3-1.6,0.2c-0.1-0.5-0.1-1-0.1-1.5c0.1,0.1,0.2,0.1,0.3,0.2
					c0,0.1,0,0.3,0,0.5l0,0c0.2,0.2,0.6,0.2,1.1-0.1l0,0c0.4-0.5,0.6-1.1,0.6-1.8c0.3,0.4,0.7,0.8,1.1,1.1c0.4,0.3,0.7,0.3,0.9,0
					c0.1,0.1,0.3,0.2,0.5,0.3l0,0l0,0c0.1,0,0.1-0.1,0.2-0.2c0.1-0.2,0-0.5-0.3-1l0,0c-1.5-1.5-2.4-2.5-2.6-2.9
					c0.4-0.1,0.9-0.1,1.3,0.1l0,0l0,0c0.3,0,0.5-0.1,0.6-0.3C56,9.3,56,9.1,55.9,8.9c-0.3-0.6-0.7-0.8-1-0.7l0,0l0,0
					c0,0.1-0.2,0.1-0.9,0.2c0.2-0.3,0.3-0.7,0.5-1.2c0.7-0.1,1.1-0.4,1.1-0.9c0-0.5-0.3-0.8-0.8-0.8c-0.1-0.4-0.2-0.7-0.3-1.1
					c-0.1-0.3-0.4-0.5-0.6-0.3c-0.4,0.5-0.3,1.2-0.3,1.7c-0.4,0.2-0.8,0.3-1.3,0.3c0.1-0.9,0-1.5-0.3-1.8l0,0
					c-0.3-0.1-0.6,0-0.9,0.5c-0.1,0.3-0.2,0.8-0.1,1.6l-0.4,0.1l0,0c-0.2,0.1-0.2,0.4-0.2,0.7C50.3,8,50.5,8.2,50.8,8.2z M52.9,12.7
					c0,0-0.1,0-0.1,0c-0.2,0-0.4,0-0.5,0.1c0-0.3,0.1-0.6,0.3-0.7l0.5-0.3l0,0.7C53,12.7,52.9,12.7,52.9,12.7z M52.1,8
					c0.3-0.1,0.5-0.2,0.8-0.3l0.4-0.2c-0.2,0.7-0.6,1.2-1.1,1.3C52.1,8.5,52.1,8.2,52.1,8z"/>
			</g>
		</g>
		<g>
			<g>
				<path fill="#FFFFFF" d="M69.5,29.3c1.7-3.2,3-6.6,3.8-10.4l2.2,1.5c-0.6,3.4-1.6,6.8-2.9,10.2c0.2,1.4-0.1,1.6-0.9,0.8
					L69.5,29.3z M71.8,10.1c2.1,1.4,3.5,2.5,4.1,3.4l-1.8,2.9c-0.9-1.1-2.3-2.3-4.1-3.7L71.8,10.1z M73,2c2,1.3,3.3,2.4,4.1,3.4
					l-1.9,2.7c-1-1.1-2.4-2.3-4.1-3.7L73,2z M94,28l0.6-2.1l2.6,1.1l-0.4,1.5c-0.5,2-1.5,3-2.9,3H83.7c-1.5,0-2.2-0.8-2.2-2.5v-7H90
					v-2.2h-8.5c-1.2,1.3-2.7,2.6-4.5,3.8l-1-3c3.3-2.1,5.7-4.6,7-7.4h-6.2v-2.6h5.6V7.5h-4.5V4.9h4.5V0.8H85
					c0.7,0.1,0.7,0.4,0.1,0.8v3.3h4V0.8h2.4c0.7,0.1,0.7,0.4,0.1,0.8v3.3h5.1v2.6h-5.1v3.3h6.5v2.6h-6c1.3,2.4,3.6,4.4,6.9,6.1
					l-1.3,2.9c-2.3-1.2-4.1-2.5-5.3-4.1v7H90v-0.5h-5.9v3.1c0,0.7,0.3,1.1,0.9,1.1h7.6C93.3,28.9,93.8,28.6,94,28z M85.8,13.3
					c-0.6,1.4-1.4,2.7-2.4,4h8.5c-1.1-1.4-1.9-2.7-2.3-4H85.8z M85.1,7.5v3.3h4V7.5H85.1z"/>
				<path fill="#FFFFFF" d="M72.3,32.3c-0.2,0-0.5-0.2-0.9-0.6l-2.3-2.3l0.1-0.2c1.7-3.2,3-6.6,3.8-10.3l0.1-0.4l2.7,1.8l0,0.2
					c0,0,0,0,0,0l0.1-0.1c3.1-2,5.4-4.3,6.7-6.8h-6v-3.2h5.6V7.8h-4.5V4.6h4.5V0.5H85c0.3,0,0.7,0.1,0.8,0.5
					c0.1,0.3-0.2,0.6-0.4,0.8v2.9h3.4V0.5h2.7c0.3,0,0.7,0.1,0.8,0.5c0.1,0.3-0.2,0.6-0.4,0.8v2.9h5.1v3.2H92v2.7h6.5v3.2h-5.8
					c1.3,2.1,3.5,4,6.6,5.6l0.2,0.1L98,22.8l-0.3-0.1c-2-1-3.6-2.2-4.8-3.6v6.5h-3.1V25h-5.3v2.9c0,0.7,0.3,0.8,0.6,0.8h7.6
					c0.8,0,1-0.4,1.1-0.7l0.7-2.4l3.1,1.3l-0.4,1.7c-0.5,2.1-1.6,3.2-3.2,3.2H83.7c-1.1,0-2.5-0.5-2.5-2.7v-7.3h8.5v-1.6h-8
					c-1.2,1.3-2.7,2.5-4.4,3.8l-0.3,0.2l-1.2-3.4c-0.6,3.3-1.6,6.6-2.9,9.9c0.1,0.7,0,1.1-0.2,1.4C72.6,32.2,72.5,32.3,72.3,32.3z
					 M69.9,29.3l2,2c0.2,0.2,0.4,0.3,0.4,0.4c0-0.1,0.1-0.3,0-0.9l0-0.1l0-0.1c1.3-3.4,2.3-6.7,2.9-10l-1.7-1.2
					C72.7,22.9,71.5,26.3,69.9,29.3z M81.8,22.4v6.7c0,1.5,0.6,2.2,1.9,2.2h10.1c1.3,0,2.2-0.9,2.7-2.8l0.3-1.3l-2-0.9l-0.5,1.7
					c-0.1,0.5-0.5,1.2-1.7,1.2H85c-0.4,0-1.2-0.2-1.2-1.4v-3.4h6.5v0.5h2v-7.3h-9.5l0.4-0.5c1-1.2,1.8-2.6,2.4-3.9l0.1-0.2h4.1
					l0.1,0.2c0.4,1.2,1.2,2.5,2.3,3.9l0.3,0.3v0l0.5,0.7c1.1,1.4,2.8,2.8,4.9,3.9l1-2.3c-3.2-1.7-5.5-3.8-6.8-6.1l-0.2-0.4h6.2v-2
					h-6.5V7.2h5.1v-2h-5.1V1.5l0.1-0.1c0.2-0.1,0.2-0.2,0.3-0.2c0,0-0.1,0-0.3-0.1l-2.1,0v4.1h-4.5V1.5L85,1.4
					c0.2-0.1,0.2-0.2,0.3-0.2c0,0-0.1,0-0.3-0.1l-2.1,0v4.1h-4.5v2h4.5V11h-5.6v2h6.3l-0.2,0.4c-1.4,2.8-3.7,5.3-7,7.4l0.8,2.4
					c1.6-1.2,3-2.4,4.1-3.6l0.1-0.1h8.9v2.8H81.8z M83.9,17h7.3c-0.9-1.2-1.5-2.3-1.9-3.4H86C85.4,14.8,84.8,15.9,83.9,17z
					 M74.1,16.8l-0.3-0.3c-0.9-1.1-2.3-2.3-4.1-3.6l-0.2-0.2l2.1-3.1L72,9.8c2.2,1.4,3.6,2.5,4.2,3.5l0.1,0.2L74.1,16.8z M70.4,12.6
					c1.5,1.2,2.8,2.3,3.7,3.3l1.5-2.4c-0.6-0.8-1.8-1.8-3.7-3L70.4,12.6z M89.4,11h-4.5V7.2h4.5V11z M85.4,10.5h3.4V7.8h-3.4V10.5z
					 M75.2,8.6l-0.2-0.3c-1-1.1-2.4-2.3-4.1-3.7l-0.2-0.2l2.3-2.9l0.2,0.1c2,1.3,3.4,2.4,4.2,3.5l0.1,0.2L75.2,8.6z M71.4,4.4
					c1.5,1.2,2.7,2.3,3.7,3.3l1.6-2.3c-0.7-0.9-2-1.9-3.7-3L71.4,4.4z"/>
			</g>
			<g>
				<path fill="#FFFFFF" d="M107.1,12.8v-2.6h6.5V5.7l-5.4,0.4l-0.6-2.5c4.8-0.3,9-0.8,12.7-1.6l1.3,2.3c0.1,0.6-0.2,0.8-0.8,0.4
					l-4.6,0.5v4.9h6.9v2.6h-6.9v3c2.6,1.3,4.8,2.8,6.4,4.6l-1.9,2.6c-1.3-1.5-2.8-3-4.5-4.2v13h-2.6V18.5c-1.5,2.7-3.4,5.1-5.8,7.2
					l-1.5-2.9c3.4-2.7,5.8-6.1,7-10.1H107.1z M126.8,5.8c0.7,0.1,0.7,0.4,0.1,0.8V25h-2.6V5.8H126.8z M133.3,2.4
					c0.7,0.1,0.7,0.4,0.1,0.8v26.1c0,1.5-0.7,2.2-2.1,2.2h-2.9l-0.5-2.6h2.6c0.3,0,0.4-0.1,0.4-0.4V2.4H133.3z"/>
				<path fill="#FFFFFF" d="M116.4,32.1h-3.1V19.6c-1.4,2.4-3.2,4.5-5.3,6.4l-0.3,0.2l-1.8-3.4l0.2-0.2c3.3-2.6,5.5-5.8,6.8-9.6
					h-6.2V9.9h6.5V6L108,6.4l-0.8-3l0.4,0c4.7-0.3,9-0.8,12.6-1.6l0.2,0l1.4,2.6c0,0.4,0,0.6-0.1,0.8c-0.1,0.1-0.5,0.3-1,0l-4.3,0.5
					v4.4h6.9v3.2h-6.9v2.5c2.6,1.3,4.7,2.8,6.3,4.6l0.2,0.2l-2.3,3.1l-0.2-0.3c-1.1-1.4-2.5-2.7-4-3.8V32.1z M113.9,31.5h2V18.2
					l0.5,0.3c1.6,1.2,3.1,2.6,4.3,4l1.6-2.1c-1.6-1.7-3.6-3.2-6.2-4.4l-0.2-0.1v-3.5h6.9v-2h-6.9V5l5-0.6l0.1,0.1
					c0.2,0.1,0.3,0.2,0.3,0.2c0,0,0-0.1,0-0.2l-1.2-2.1c-3.5,0.8-7.6,1.3-12.2,1.6l0.5,1.9l5.5-0.4v5.1h-6.5v2h6.4l-0.1,0.4
					c-1.3,4-3.6,7.4-7,10.1l1.3,2.3c2.2-2,4.1-4.3,5.4-6.9l0.5-1V31.5z M131.4,31.8h-3.2l-0.6-3.2h2.9c0.1,0,0.1,0,0.1,0l0,0
					c0,0,0,0,0-0.1V2.1h2.7c0.3,0,0.7,0.1,0.8,0.5c0.1,0.3-0.2,0.6-0.4,0.8v26C133.7,31,132.9,31.8,131.4,31.8z M128.7,31.2h2.7
					c1.2,0,1.8-0.6,1.8-1.9V3.1l0.1-0.1c0.2-0.1,0.2-0.2,0.3-0.2c0,0-0.1,0-0.3-0.1l-2.1,0v25.8c0,0.4-0.3,0.7-0.7,0.7h-2.2
					L128.7,31.2z M127.2,25.2h-3.1V5.5h2.7c0.3,0,0.7,0.1,0.8,0.5c0.1,0.3-0.2,0.6-0.4,0.8V25.2z M124.6,24.7h2V6.5l0.1-0.1
					c0.2-0.1,0.2-0.2,0.3-0.2c0,0-0.1,0-0.3-0.1l-2.1,0V24.7z"/>
			</g>
			<g>
				<path fill="#FFFFFF" d="M143.8,13.6l-1.4-2.3c2.6-1,4.9-2.2,6.9-3.6l1.3,2c-2.1,1.5-4,2.7-5.9,3.7
					C144.6,14.4,144.3,14.4,143.8,13.6z M142.9,29.6c3.7-0.5,6.7-1.6,9.1-3.1l1.9,1.9c0.3,0.6,0.1,0.8-0.8,0.5
					c-2.7,1.5-5.9,2.5-9.4,3.3L142.9,29.6z M145.9,1.5c1.3,0.6,2.7,1.4,4.2,2.3l-1.7,2.3c-1.1-0.7-2.5-1.5-4.2-2.3L145.9,1.5z
					 M152.7,13.6h12.9v12.7h-18.2V13.6h4.6l-1.3-2.3c4.7-0.7,7.1-2.7,7.3-6h-2.2c-0.9,1.5-2,2.8-3.1,3.7L151,7.5
					c2-1.9,3.5-4.3,4.7-7.1l2.2,0.8c0.3,0.4,0.2,0.6-0.4,0.7L157,3.1h10.3l0.4-0.4l2.1,1.5l-0.6,0.5c-0.6,1.1-1.7,2.5-3.2,4.1
					L164,7.5c0.7-0.6,1.3-1.4,1.9-2.2h-5.4c1.5,3,4.9,5.1,10.4,6.1l-1,2.6c-4.7-0.9-8-2.8-9.9-5.7C159,10.8,156.6,12.6,152.7,13.6z
					 M163.1,17.3v-2H150v2H163.1z M163.1,21v-2H150v2H163.1z M163.1,24.7v-2H150v2H163.1z M169,31.9c-3.9-0.6-7.2-1.8-9.9-3.6
					l1.9-1.9c2.7,1.5,5.6,2.4,8.7,2.7L169,31.9z"/>
				<path fill="#FFFFFF" d="M143.6,32.5l-1.1-3.2l0.3-0.1c3.3-0.5,6.1-1.4,8.3-2.7h-4.1V13.3h4.4l-1.2-2.3l0.4-0.1
					c4.4-0.7,6.7-2.5,7-5.4H156c-0.9,1.5-2,2.7-3.1,3.6l-0.2,0.2l-2.2-1.9l0.2-0.2c1.9-1.9,3.5-4.2,4.7-7l0.1-0.3l2.5,1
					c0.2,0.2,0.3,0.5,0.2,0.7c-0.1,0.3-0.4,0.4-0.6,0.4l-0.3,0.7h9.7l0.5-0.5l2.6,1.9l-0.9,0.7c-0.6,1.1-1.7,2.5-3.2,4.1l-0.2,0.2
					l-2.4-1.7l0.3-0.2c0.5-0.5,1.1-1.1,1.5-1.7H161c1.5,2.7,4.9,4.6,10,5.6l0.3,0.1l-1.2,3.1l-0.2,0c-4.5-0.9-7.8-2.7-9.8-5.4
					c-0.9,2-2.7,3.4-5.4,4.4h11.3v13.3h-4c2.5,1.2,5.1,2,7.8,2.3l0.3,0l-0.9,3.3l-0.3,0c-4-0.6-7.3-1.9-10-3.6l-0.3-0.2l1.8-1.8
					h-7.9l1.6,1.6c0.1,0.2,0.3,0.6,0.1,0.8c-0.1,0.2-0.4,0.4-1.1,0.1c-2.7,1.4-5.9,2.5-9.3,3.3L143.6,32.5z M143.3,29.8l0.7,2
					c3.4-0.7,6.4-1.8,9-3.2l0.1-0.1l0.1,0c0.3,0.1,0.5,0.1,0.5,0.1c0,0,0-0.1-0.1-0.2l-1.7-1.7C149.7,28.3,146.8,29.3,143.3,29.8z
					 M159.5,28.3c2.5,1.6,5.6,2.7,9.2,3.3l0.6-2.2c-2.9-0.4-5.7-1.3-8.3-2.6L159.5,28.3z M147.7,26h17.6V13.9h-17.6V26z M159.9,7.6
					l0.3,0.5c1.8,2.8,5,4.7,9.4,5.6l0.8-2.1c-5.3-1.1-8.8-3.2-10.2-6.2L160,5h6.4l-0.3,0.5c-0.5,0.7-1.1,1.4-1.7,2l1.4,1
					c1.4-1.5,2.4-2.8,3-3.9l0.1-0.1l0.4-0.3l-1.6-1.1l-0.3,0.3h-10.8l0.7-1.8l0.2,0c0.2,0,0.3-0.1,0.3-0.1c0,0,0,0-0.1-0.1l-1.9-0.7
					c-1.1,2.6-2.6,4.9-4.5,6.7l1.4,1.1c1-0.9,2-2,2.8-3.5l0.1-0.1h2.6l0,0.3c-0.2,3.3-2.6,5.4-7.1,6.2l1.1,1.9l0.3-0.1
					c3.8-1,6.2-2.7,7.1-5.1L159.9,7.6z M163.3,25h-13.6v-2.6h13.6V25z M150.3,24.4h12.5v-1.5h-12.5V24.4z M163.3,21.3h-13.6v-2.6
					h13.6V21.3z M150.3,20.7h12.5v-1.5h-12.5V20.7z M163.3,17.6h-13.6V15h13.6V17.6z M150.3,17h12.5v-1.5h-12.5V17z M144.4,14.5
					c-0.3,0-0.5-0.2-0.8-0.7l-1.6-2.6l0.3-0.1c2.5-1,4.8-2.2,6.9-3.5l0.2-0.2l1.6,2.5l-0.2,0.2c-2,1.4-4,2.6-5.8,3.6
					C144.9,14,144.8,14.5,144.4,14.5z M142.8,11.4l1.2,2c0.1,0.2,0.2,0.3,0.2,0.4c0-0.1,0.1-0.2,0.1-0.4l0-0.1l0.1-0.1
					c1.8-1,3.7-2.1,5.6-3.5l-1-1.6C147.3,9.4,145.2,10.5,142.8,11.4z M148.5,6.5l-0.2-0.2c-1.1-0.7-2.5-1.5-4.2-2.3l-0.3-0.1l2-2.8
					l0.2,0.1c1.3,0.6,2.7,1.4,4.2,2.3l0.3,0.2L148.5,6.5z M144.7,3.7c1.5,0.7,2.7,1.4,3.7,2l1.3-1.8c-1.3-0.8-2.6-1.5-3.7-2
					L144.7,3.7z"/>
			</g>
			<g>
				<path fill="#FFFFFF" d="M206.1,26.7c-5.2-3.5-9.3-7.9-12.2-13.3v8.6h5.3v2.6H194v7.4h-2.6v-7.4h-5v-2.6h5v-8.6
					c-2.5,5.8-6.5,10.5-12,13.9l-1.4-2.9c5.8-3.4,10-8.3,12.4-14.8h-11.2V7.2h12.2V1h2.4c0.7,0.1,0.7,0.4,0.1,0.8v5.3h12.3v2.6
					h-11.4c2.9,5.6,7.1,10.2,12.7,13.8L206.1,26.7z"/>
				<path fill="#FFFFFF" d="M194.2,32.4h-3.1V25h-5v-2.7c-1.9,2.1-4.1,3.9-6.6,5.4l-0.3,0.2l-1.7-3.4l0.2-0.1
					c5.6-3.3,9.7-8,12.2-14.2h-11V6.9h12.2V0.8h2.7c0.3,0,0.7,0.1,0.8,0.5c0.1,0.3-0.2,0.6-0.4,0.8v4.9h12.3v3.2h-11.2
					c2.9,5.3,7,9.8,12.4,13.3l0.2,0.1l-1.6,3.7L206,27c-4.9-3.3-8.9-7.4-11.7-12.4v7.2h5.3V25h-5.3V32.4z M191.7,31.8h2v-7.4h5.3v-2
					h-5.3v-10l0.5,1c2.8,5.2,6.8,9.6,11.8,13l1.2-2.6c-5.5-3.6-9.7-8.3-12.6-13.8l-0.2-0.4H206v-2h-12.3V1.7l0.1-0.1
					c0.2-0.1,0.2-0.2,0.3-0.2c0,0-0.1,0-0.3-0.1l-2.1,0v6.1h-12.2v2h11.3l-0.1,0.4c-2.5,6.4-6.6,11.4-12.3,14.8l1.2,2.3
					c5.3-3.4,9.3-8,11.7-13.6l0.6-1.3v10.3h-5v2h5V31.8z M186.5,21.8h4.6v-7C189.9,17.4,188.3,19.7,186.5,21.8z"/>
			</g>
			<g>
				<path fill="#FFFFFF" d="M224.1,8.2h-8.6V5.6h9.2c0.3-1.1,0.5-2.7,0.6-4.9l3.3,0.7c0.3,0.4,0.2,0.6-0.4,0.7l-0.6,3.6H243v2.6
					h-15.9c-0.3,1.3-0.7,2.3-1.2,3.1h12.7v18.2c0,1.5-0.7,2.2-2.1,2.2h-2.9l-0.6-2.6h2.6c0.3,0,0.5-0.2,0.5-0.5v-3.7H225v7.2h-2.6
					V17c-2.1,2.3-4.2,4.1-6.5,5.6l-1.5-2.9C219.4,16.8,222.6,12.9,224.1,8.2z M236.1,16.6v-2.7H225v2.7H236.1z M225,19.2v3h11.2v-3
					H225z"/>
				<path fill="#FFFFFF" d="M225.3,32.4h-3.1V17.8c-1.9,2-4,3.8-6.1,5.1l-0.3,0.2l-1.8-3.4l0.2-0.1c4.8-2.9,8-6.6,9.5-11.1h-8.5V5.3
					h9.3c0.2-1.1,0.4-2.6,0.6-4.7l0-0.3l3.7,0.8l0.1,0.1c0.2,0.2,0.3,0.5,0.2,0.7c-0.1,0.3-0.3,0.4-0.6,0.4l-0.5,3h15.3v3.2h-16
					c-0.3,1-0.6,1.9-0.9,2.6H239v18.5c0,1.6-0.8,2.5-2.3,2.5h-3.2l-0.8-3.2h2.9c0.2,0,0.2,0,0.2-0.3v-3.4h-10.6V32.4z M222.7,31.8h2
					v-7.2h11.7v4c0,0.5-0.3,0.8-0.8,0.8h-2.2l0.5,2h2.7c1.2,0,1.8-0.6,1.8-1.9V11.6h-12.9l0.2-0.4c0.4-0.8,0.8-1.8,1.1-3.1l0.1-0.2
					h15.8v-2h-15.4l0.7-4.1l0.2,0c0.2,0,0.3-0.1,0.3-0.1c0,0,0,0,0,0L225.6,1c-0.2,2.1-0.4,3.6-0.6,4.6l-0.1,0.2h-9.2v2h8.7
					l-0.1,0.4c-1.4,4.7-4.7,8.6-9.6,11.6l1.3,2.4c2.2-1.4,4.3-3.2,6.2-5.4l0.5-0.6V31.8z M236.4,22.5h-11.7v-3.6h11.7V22.5z
					 M225.3,21.9h10.6v-2.4h-10.6V21.9z M236.4,16.9h-11.7v-3.3h11.7V16.9z M225.3,16.3h10.6v-2.2h-10.6V16.3z"/>
			</g>
			<g>
				<path fill="#FFFFFF" d="M256,12.9l2.6-8.3h-4.4v27.3h-2.6V2h7.7l0.1-0.5l2.6,1.8l-0.4,0.4l-3.1,8.9c2.2,3.2,3.2,6.1,3.1,8.6
					c-0.2,3.3-1.2,4.9-3.2,4.9h-2.8l-0.6-2.9h2.4c1.1,0,1.6-0.8,1.5-2.5C258.8,18,257.9,15.4,256,12.9z M271.2,29.2L261,31.5
					c-0.3,0.6-0.5,0.8-0.8,0.4l-0.9-3.3l3.6-0.5V1.7h14v15.4h-6.5c0.3,1.3,0.8,2.8,1.5,4.6c2.1-1.3,3.7-2.6,5-4.1l2.3,1.9
					c0.3,0.5,0.1,0.7-0.8,0.5c-1.5,1.4-3.2,2.6-5.1,3.8c1.2,1.9,3.4,3.7,6.7,5.3l-1.5,2.9c-5.7-2.8-9.2-7.8-10.4-15h-2.6v10.5
					l5.4-1.1L271.2,29.2z M274.3,4.3h-8.8v4h8.8V4.3z M274.3,10.9h-8.8v3.7h8.8V10.9z"/>
				<path fill="#FFFFFF" d="M278.5,32.6l-0.2-0.1c-5.7-2.8-9.3-7.9-10.5-15h-2v9.9l5.3-1.1l0.5,3.2l-10.4,2.3
					c-0.1,0.3-0.4,0.6-0.7,0.6c-0.2,0-0.4-0.1-0.5-0.3l0-0.1l-1-3.6l3.7-0.6V1.4h14.5v16H277l2.4,2c0.1,0.1,0.3,0.5,0.1,0.8
					c-0.1,0.3-0.5,0.3-1.1,0.2c-1.4,1.3-3,2.5-4.8,3.6c1.2,1.8,3.3,3.4,6.4,5l0.3,0.1L278.5,32.6z M260.5,31.8
					C260.5,31.8,260.5,31.8,260.5,31.8c0,0,0.1-0.1,0.2-0.4l0.1-0.1l10.1-2.3l-0.3-2l-5.4,1.1V16.9h3.1l0,0.2
					c1.2,7,4.5,11.9,10,14.7l1.3-2.4c-3.1-1.6-5.3-3.4-6.5-5.3l-0.2-0.2l0.3-0.2c1.9-1.2,3.6-2.4,5.1-3.8l0.1-0.1l0.1,0
					c0.3,0.1,0.5,0.1,0.6,0.1c0,0,0-0.1-0.1-0.1l-2.1-1.7c-1.3,1.4-2.9,2.7-4.9,3.9l-0.3,0.2l-0.1-0.3c-0.8-1.8-1.3-3.4-1.6-4.7
					l-0.1-0.3h6.6V2h-13.4v26.3l-3.5,0.5L260.5,31.8z M270.7,17.5c0.3,1.1,0.7,2.4,1.3,3.9c1.9-1.2,3.5-2.5,4.6-3.9l0.1-0.1H270.7z
					 M254.5,32.2h-3.1V1.7h7.8l0.2-0.7l3.2,2.2l-0.6,0.6l-3,8.7c2.2,3.2,3.2,6.1,3,8.7c-0.2,3.4-1.4,5.2-3.5,5.2h-3l-0.8-3.4h2.8
					c0.4,0,0.6-0.1,0.8-0.3c0.3-0.3,0.5-1,0.4-1.8c-0.1-2.7-1.1-5.2-2.9-7.6l-0.1-0.1l2.5-8.1h-3.7V32.2z M251.9,31.6h2V4.3h5
					l-2.6,8.6c1.9,2.5,2.8,5.1,2.9,7.8c0.1,1.1-0.1,1.8-0.6,2.3c-0.3,0.3-0.7,0.5-1.3,0.5h-2.1l0.5,2.3h2.6c1.8,0,2.8-1.5,2.9-4.6
					c0.2-2.5-0.9-5.3-3-8.4l-0.1-0.1l3.2-9.1l0.2-0.2l-1.9-1.3l-0.1,0.4h-7.6V31.6z M274.6,14.9h-9.4v-4.3h9.4V14.9z M265.8,14.3
					h8.3v-3.1h-8.3V14.3z M274.6,8.6h-9.4V4h9.4V8.6z M265.8,8h8.3V4.6h-8.3V8z"/>
			</g>
			<g>
				<path fill="#FFFFFF" d="M286.6,16.5c3.9-3.4,7-7.8,9.4-13.4l2.8,2c0.4,0.5,0.2,0.7-0.6,0.8c-2.3,5-5.4,9.3-9.4,12.8L286.6,16.5z
					 M291.1,30.2l-1-3.3l4.1-0.3c1.9-4.7,3.5-9.4,4.7-13.9l3.1,1.1c0.7,0.3,0.6,0.5-0.4,0.8c-1.5,4-3.1,8-4.7,11.9l10.9-0.8
					c-0.9-1.5-2.1-3.4-3.7-5.6l2.6-1.2c2.3,2.6,4.5,6.1,6.5,10.2l-2.8,1.6c-0.3-0.7-0.7-1.6-1.3-2.7l-17.2,1.9
					C291.6,30.8,291.4,30.9,291.1,30.2z M306.2,3.1c1.7,6,5,10.2,9.7,12.7l-2.2,2.9c-5.5-3.5-8.9-8.3-10.3-14.6L306.2,3.1z"/>
				<path fill="#FFFFFF" d="M310.2,31.1l-0.1-0.3c-0.2-0.7-0.6-1.5-1.2-2.5l-16.8,1.9c-0.1,0.4-0.3,0.8-0.6,0.8
					c-0.3,0-0.5-0.4-0.6-0.7l-1.1-3.6l4.3-0.3c1.8-4.7,3.4-9.3,4.7-13.7l0.1-0.3l3.4,1.2c0.2,0.1,0.6,0.3,0.6,0.6
					c0,0.4-0.4,0.5-0.9,0.7c-1.4,3.8-3,7.6-4.5,11.3l10-0.8c-0.8-1.4-2-3.2-3.5-5.2l-0.2-0.3l3.1-1.5l0.1,0.2
					c2.3,2.6,4.5,6.1,6.6,10.3l0.1,0.2L310.2,31.1z M309.2,27.7l0.1,0.2c0.5,1,0.9,1.8,1.2,2.5l2.3-1.3c-2-4-4.1-7.2-6.2-9.8l-2.1,1
					c1.5,2.1,2.7,3.9,3.5,5.4l0.2,0.4l-11.8,0.9l0.2-0.4c1.6-3.9,3.2-7.9,4.7-11.9l0.1-0.1l0.1,0c0.3-0.1,0.4-0.2,0.5-0.2
					c0,0-0.1,0-0.2-0.1l-2.8-1c-1.3,4.4-2.8,9-4.7,13.7l-0.1,0.2l-3.9,0.3l0.9,2.9c0,0.1,0,0.1,0.1,0.2c0-0.1,0.1-0.2,0.2-0.4
					l0.1-0.2L309.2,27.7z M288.8,19.2l-2.6-2.7l0.2-0.2c3.9-3.3,7-7.8,9.3-13.3l0.1-0.3l3.1,2.3c0.3,0.3,0.4,0.6,0.3,0.8
					c-0.1,0.3-0.5,0.5-0.9,0.5c-2.3,5-5.5,9.3-9.4,12.8L288.8,19.2z M287,16.5l1.8,1.9c3.8-3.5,6.8-7.7,9.1-12.6l0.1-0.1l0.2,0
					c0.4,0,0.6-0.1,0.6-0.2c0,0,0-0.1-0.1-0.2l-2.5-1.8C293.8,8.9,290.8,13.2,287,16.5z M313.9,19.1l-0.2-0.1
					c-5.5-3.5-9-8.5-10.4-14.8l-0.1-0.2l3.2-1.1l0.1,0.3c1.7,5.9,4.9,10.1,9.6,12.5l0.3,0.2L313.9,19.1z M303.9,4.2
					c1.4,6,4.7,10.7,9.8,14l1.8-2.4c-4.6-2.5-7.8-6.6-9.5-12.4L303.9,4.2z"/>
			</g>
			<g>
				<path fill="#FFFFFF" d="M347,31.8h-3.8l-0.4-2.6h3.2c0.3,0,0.5-0.2,0.5-0.5V5.4h-21.7V2.8H349v26.8
					C349,31.1,348.4,31.8,347,31.8z M344,11.7h-19.2V9.1H344V11.7z M341,14.9v11.6h-2.6v-1h-8.6V28h-2.6V14.9H341z M338.4,17.4h-8.6
					v5.5h8.6V17.4z"/>
				<path fill="#FFFFFF" d="M347,32.1h-4.1l-0.5-3.2h3.5c0.2,0,0.2,0,0.2-0.3V5.7h-21.7V2.5h24.8v27.1
					C349.3,31.2,348.5,32.1,347,32.1z M343.4,31.5h3.6c1.2,0,1.8-0.6,1.8-1.9V3.1h-23.6v2h21.7v23.5c0,0.5-0.3,0.8-0.8,0.8h-2.9
					L343.4,31.5z M330.1,28.3H327V14.6h14.3v12.2h-3.1v-1h-8V28.3z M327.5,27.7h2v-2.5h9.2v1h2v-11h-13.1V27.7z M338.7,23.2h-9.2v-6
					h9.2V23.2z M330.1,22.6h8v-4.9h-8V22.6z M344.3,12h-19.8V8.8h19.8V12z M325.1,11.4h18.6v-2h-18.6V11.4z"/>
			</g>
		</g>
		<g>
			<g>
				<path fill="#FFFFFF" d="M85,45.2c-1.3-1.3-3.2-2-4.9-2c-4.1,0-6.6,3.3-6.6,7.5c0,3.4,1.8,6.8,6.6,6.8c1.5,0,2.8-0.3,4.3-1.6
					v-3.6h-4.9v-3.4h8.2v8.6c-1.9,2.3-4.3,3.7-7.6,3.7c-7.2,0-10.1-5-10.1-10.4c0-5.7,3.4-11,10.1-11c2.6,0,5.2,1,7.1,3.1L85,45.2z"
					/>
			</g>
			<g>
				<path fill="#FFFFFF" d="M94.3,40.2v16.9h9.9v3.6H90.7V40.2H94.3z"/>
			</g>
			<g>
				<path fill="#FFFFFF" d="M120.4,56.8h-10l-1.6,3.8h-3.9l8.6-20.4h3.9l8.6,20.4H122L120.4,56.8z M115.4,44.5l-3.6,8.7h7.1
					L115.4,44.5z"/>
			</g>
			<g>
				<path fill="#FFFFFF" d="M144,45.8l-6.2,8.9H137l-6.1-8.9v14.8h-3.6V40.2h4.2l6,8.8l6-8.8h4.1v20.4H144V45.8z"/>
			</g>
			<g>
				<path fill="#FFFFFF" d="M173.4,58.1c-2,2.1-4.5,3-7.3,3c-7.1,0-10.1-5.2-10.2-10.5c0-5.3,3.2-10.8,10.2-10.8c2.6,0,5.1,1,7,3.1
					l-2.4,2.5c-1.3-1.3-3-1.9-4.6-1.9c-4.6,0-6.6,3.7-6.6,7.1c0,3.4,1.9,6.9,6.6,6.9c1.7,0,3.6-0.7,4.8-2.1L173.4,58.1z"/>
			</g>
			<g>
				<path fill="#FFFFFF" d="M185.4,46.3h3.2v14.4h-3.2l-0.2-2.1c-0.8,1.7-2.9,2.5-4.4,2.5c-4,0-7-2.6-7-7.6c0-5,3.1-7.6,7-7.5
					c1.8,0,3.5,0.9,4.3,2.3L185.4,46.3z M177.3,53.4c0,2.7,1.8,4.4,4,4.4c5.3,0,5.3-8.7,0-8.7C179,49.1,177.3,50.7,177.3,53.4z"/>
			</g>
			<g>
				<path fill="#FFFFFF" d="M191.4,66.6V46.3h3.1l0.2,2c1-1.6,2.8-2.3,4.4-2.3c4.2,0,6.9,3.3,6.9,7.5c0,4.2-2.5,7.5-6.8,7.5
					c-1.4,0-3.5-0.5-4.5-2v7.7H191.4z M202.7,53.5c0-2.2-1.4-4.1-3.8-4.1s-3.8,1.8-3.8,4.1c0,2.2,1.6,4.1,3.8,4.1
					C201.2,57.5,202.7,55.7,202.7,53.5z"/>
			</g>
			<g>
				<path fill="#FFFFFF" d="M212.2,42.2c0,2.8-3.9,2.8-3.9,0C208.2,39.4,212.2,39.4,212.2,42.2z M208.5,46.2v14.4h3.3V46.2H208.5z"
					/>
			</g>
			<g>
				<path fill="#FFFFFF" d="M219.6,42.2v4.1h3.7v3.1h-3.8v6.2c0,1.4,0.7,2,1.8,2c0.5,0,1.1-0.2,1.6-0.4l0.9,3
					c-1,0.4-1.8,0.6-2.8,0.6c-2.9,0.1-4.9-1.7-4.9-5.2v-6.2h-2.5v-3.1h2.5v-3.7L219.6,42.2z"/>
			</g>
			<g>
				<path fill="#FFFFFF" d="M236.5,46.3h3.2v14.4h-3.2l-0.2-2.1c-0.8,1.7-2.9,2.5-4.4,2.5c-4,0-7-2.6-7-7.6c0-5,3.1-7.6,7-7.5
					c1.8,0,3.5,0.9,4.3,2.3L236.5,46.3z M228.4,53.4c0,2.7,1.8,4.4,4,4.4c5.3,0,5.3-8.7,0-8.7C230.2,49.1,228.4,50.7,228.4,53.4z"/>
			</g>
			<g>
				<path fill="#FFFFFF" d="M245.9,40.2v20.4h-3.3V40.2H245.9z"/>
			</g>
			<g>
				<path fill="#FFFFFF" d="M258.2,40.2v16.9h9.9v3.6h-13.5V40.2H258.2z"/>
			</g>
			<g>
				<path fill="#FFFFFF" d="M274,42.2c0,2.8-3.9,2.8-3.9,0C270.1,39.4,274,39.4,274,42.2z M270.4,46.2v14.4h3.3V46.2H270.4z"/>
			</g>
			<g>
				<path fill="#FFFFFF" d="M285.7,60.6v-7.7c0-1.9-0.9-3.6-2.8-3.6c-1.8,0-2.9,1.7-2.9,3.6v7.7h-3.3V46.2h3.1l0.2,1.7
					c0.7-1.5,2.3-2,3.6-2c1.6,0,3.2,0.7,4,2.7c1.2-2,2.8-2.6,4.5-2.6c3.8,0,5.7,2.5,5.7,6.8v7.8h-3.3v-7.8c0-1.9-0.7-3.5-2.5-3.5
					c-1.8,0-2.9,1.7-2.9,3.6v7.7H285.7z"/>
			</g>
			<g>
				<path fill="#FFFFFF" d="M304.9,42.2c0,2.8-3.9,2.8-3.9,0C301,39.4,304.9,39.4,304.9,42.2z M301.3,46.2v14.4h3.3V46.2H301.3z"/>
			</g>
			<g>
				<path fill="#FFFFFF" d="M312.4,42.2v4.1h3.7v3.1h-3.8v6.2c0,1.4,0.7,2,1.8,2c0.5,0,1.1-0.2,1.6-0.4l0.9,3
					c-1,0.4-1.8,0.6-2.8,0.6c-2.9,0.1-4.8-1.7-4.8-5.2v-6.2h-2.5v-3.1h2.5v-3.7L312.4,42.2z"/>
			</g>
			<g>
				<path fill="#FFFFFF" d="M321.4,54.7c0.2,1.8,1.7,3.1,4,3.1c1.2,0,2.8-0.5,3.6-1.3l2.1,2.2c-1.4,1.6-3.8,2.3-5.8,2.3
					c-4.7,0-7.4-3.1-7.4-7.7c0-4.4,2.8-7.5,7.2-7.5c4.5,0,7.3,3,6.8,8.9H321.4z M328.8,51.8c-0.2-1.9-1.6-2.8-3.5-2.8
					c-1.8,0-3.3,0.9-3.8,2.8H328.8z"/>
			</g>
			<g>
				<path fill="#FFFFFF" d="M348.6,40.2v20.4h-3.1l-0.2-2c-1,1.7-2.7,2.3-4.4,2.3c-4,0-7-2.8-7-7.5c0-5,2.9-7.5,6.9-7.5
					c1.4,0,3.6,0.8,4.4,2.3v-8H348.6z M337.3,53.4c0,2.5,1.7,4.2,3.8,4.2c2.1,0,3.9-1.6,3.9-4.2c0-2.5-1.8-4.2-3.9-4.2
					C339,49.2,337.3,50.8,337.3,53.4z"/>
			</g>
		</g>
	</g>
</g>
</svg>
